<svg xmlns="http://www.w3.org/2000/svg" aria-hidden="true" style="position:absolute;width:0;height:0;overflow:hidden"><defs><symbol id="icon-arrow" viewBox="0 0 32 32"><path fill="#fff" d="m17.333 21.567 6.533-6.533q.4-.4.933-.384c.533.016.667.15.933.417q.366.4.384.933c.018.533-.116.667-.384.933l-8.8 8.8q-.2.2-.433.284a1.1 1.1 0 0 1-.5.081q-.267-.003-.5-.084c-.233-.081-.3-.149-.433-.283l-8.8-8.8q-.366-.367-.367-.917c-.001-.55.122-.684.367-.949q.4-.4.951-.4c.551 0 .684.133.949.4l6.5 6.501v-14.9q0-.567.384-.951c.384-.384.572-.384.949-.383q.565.002.951.384c.386.382.384.572.383.949v14.9z" style="fill:var(--color1, #fff)"/></symbol><symbol id="icon-close" viewBox="0 0 32 32"><path fill="#fff" d="m16 18.829 7.071 7.071a2.001 2.001 0 0 0 2.83-2.83l-7.073-7.071L25.9 8.928a2 2 0 0 0 .585-1.414 2 2 0 0 0-.586-1.414 2 2 0 0 0-1.414-.585 2 2 0 0 0-1.414.586l-7.069 7.071-7.071-7.071a2 2 0 1 0-2.829 2.827L13.175 16l-7.072 7.072a2 2 0 0 0-.61 1.421 2.02 2.02 0 0 0 .586 1.432 2 2 0 0 0 2.204.423c.244-.105.465-.257.649-.449z" style="fill:var(--color1, #fff)"/></symbol><symbol id="icon-menu" viewBox="0 0 32 32"><path d="M26.667 23.333a1.996 1.996 0 0 1 1.996 1.904 1.997 1.997 0 0 1-1.805 2.086l-.192.009H5.333a2.001 2.001 0 0 1-1.512-3.308 2 2 0 0 1 1.32-.682l.192-.009zm0-9.333a2 2 0 0 1 0 4H5.334a2 2 0 0 1 0-4zm0-9.333a2 2 0 0 1 0 4H5.334a2 2 0 0 1 0-4z"/></symbol><symbol id="icon-quote" viewBox="0 0 64 64" fill="none">
  <path d="M15.9995 17H23.9995C25.1488 17 26.2513 17.4569 27.064 18.2695C27.8764 19.0821 28.3334 20.1839 28.3335 21.333V34.667C28.3334 37.9378 27.034 41.0748 24.7212 43.3877C22.4082 45.7006 19.2705 47 15.9995 47H13.3335C12.8915 47 12.4673 46.8243 12.1548 46.5117C11.8422 46.1992 11.6665 45.775 11.6665 45.333C11.6666 44.8912 11.8424 44.4677 12.1548 44.1553C12.4673 43.8427 12.8915 43.667 13.3335 43.667H15.9995C18.3865 43.667 20.6759 42.7181 22.3638 41.0303C24.0514 39.3425 24.9994 37.0537 24.9995 34.667V33.667H15.9995C14.8504 33.6669 13.7486 33.2099 12.936 32.3975C12.1234 31.5848 11.6665 30.4823 11.6665 29.333V21.333C11.6666 20.1839 12.1235 19.0821 12.936 18.2695C13.7486 17.4569 14.8504 17.0001 15.9995 17ZM39.9995 17H47.9995C49.1488 17 50.2513 17.4569 51.064 18.2695C51.8764 19.0821 52.3334 20.1839 52.3335 21.333V34.667C52.3334 37.9378 51.034 41.0748 48.7212 43.3877C46.4082 45.7006 43.2705 47 39.9995 47H37.3335C36.8915 47 36.4673 46.8243 36.1548 46.5117C35.8422 46.1992 35.6665 45.775 35.6665 45.333C35.6666 44.8912 35.8424 44.4677 36.1548 44.1553C36.4673 43.8427 36.8915 43.667 37.3335 43.667H39.9995C42.3865 43.667 44.6759 42.7181 46.3638 41.0303C48.0514 39.3425 48.9994 37.0537 48.9995 34.667V33.667H39.9995C38.8504 33.6669 37.7486 33.2099 36.936 32.3975C36.1234 31.5848 35.6665 30.4823 35.6665 29.333V21.333C35.6666 20.1839 36.1235 19.0821 36.936 18.2695C37.7486 17.457 38.8504 17.0001 39.9995 17Z" fill="#272E2F" stroke="white" stroke-width="2" />
</symbol><symbol id="icon-star-black" viewBox="0 0 32 32"><path d="M12.204 7.211C13.893 4.182 14.737 2.667 16 2.667s2.107 1.515 3.796 4.544l.437.784c.48.861.72 1.292 1.093 1.576s.84.389 1.773.6l.848.192c3.28.743 4.919 1.113 5.309 2.368.389 1.253-.728 2.561-2.964 5.176l-.579.676c-.635.743-.953 1.115-1.096 1.573-.143.46-.095.956.001 1.947l.088.903c.337 3.489.507 5.233-.515 6.008s-2.557.068-5.627-1.345l-.796-.365c-.872-.403-1.308-.603-1.771-.603s-.899.2-1.771.603l-.795.365c-3.071 1.413-4.607 2.12-5.627 1.347-1.023-.776-.853-2.52-.516-6.009l.088-.901c.096-.992.144-1.488 0-1.947-.141-.46-.46-.832-1.095-1.573l-.579-.677c-2.236-2.613-3.353-3.921-2.964-5.176s2.031-1.627 5.311-2.368l.848-.192c.932-.211 1.397-.316 1.772-.6s.613-.715 1.093-1.576l.437-.784z"/></symbol><symbol id="icon-star-empty" viewBox="0 0 24 24" fill="none">
  <path d="M12 3C12.0167 3 12.0433 2.99914 12.1104 3.04395C12.1954 3.10081 12.3258 3.21975 12.5098 3.45996C12.8897 3.95612 13.3238 4.73021 13.9736 5.89551L14.3018 6.48242C14.6182 7.05033 14.9041 7.60419 15.3896 7.97363C15.8826 8.34866 16.4915 8.46419 17.1045 8.60254V8.60352L17.7402 8.74707C19.0043 9.03328 19.8358 9.22451 20.3984 9.44629C20.8062 9.60706 20.9275 9.72825 20.9678 9.7959L20.9883 9.8457C21.0043 9.89726 21.0491 10.0561 20.7236 10.5732C20.3895 11.1041 19.8204 11.7743 18.9609 12.7793L18.5264 13.2871C18.1052 13.7799 17.692 14.2343 17.5098 14.8203H17.5088C17.3734 15.257 17.3835 15.71 17.4238 16.1875L17.4697 16.6738L17.5361 17.3506C17.6657 18.6908 17.7501 19.5868 17.7217 20.2256C17.6934 20.8604 17.5614 20.9475 17.541 20.9629C17.5373 20.9657 17.454 21.0717 16.8867 20.9092C16.3068 20.743 15.5264 20.3873 14.3438 19.8428L14.3428 19.8418L13.7451 19.5684C13.1738 19.3045 12.6169 19.0254 12 19.0254C11.3831 19.0255 10.8263 19.3045 10.2549 19.5684L9.6582 19.8428C8.47505 20.3873 7.6944 20.7438 7.11426 20.9102C6.54633 21.073 6.46279 20.966 6.45996 20.9639C6.43722 20.9469 6.30746 20.8555 6.2793 20.2256C6.25079 19.5869 6.33532 18.6913 6.46484 17.3516L6.53027 16.6748C6.59412 16.0151 6.67232 15.4014 6.48926 14.8184C6.30715 14.2317 5.89335 13.7783 5.47363 13.2881H5.47461L5.04102 12.7803H5.04004C4.18021 11.7753 3.61054 11.1051 3.27637 10.5742C2.94949 10.0549 2.99669 9.89634 3.0127 9.84473C3.025 9.80508 3.05825 9.66081 3.60254 9.44629C4.02474 9.27989 4.59807 9.13095 5.3916 8.94629L6.26074 8.74707L6.89648 8.60254C7.51012 8.46384 8.11612 8.3485 8.60938 7.97461C9.09738 7.60461 9.38376 7.04849 9.69922 6.48242L9.69824 6.48145L10.0264 5.89551C10.6761 4.73034 11.1103 3.95613 11.4902 3.45996C11.6741 3.21981 11.8046 3.10085 11.8896 3.04395C11.9565 2.9992 11.9833 2.99999 12 3Z" stroke="#272E2F" stroke-width="2" />
</symbol><symbol id="icon-star-white" viewBox="0 0 32 32"><path fill="#fff" d="M12.204 7.211C13.893 4.182 14.737 2.667 16 2.667s2.107 1.515 3.796 4.544l.437.784c.48.861.72 1.292 1.093 1.576s.84.389 1.773.6l.848.192c3.28.743 4.919 1.113 5.309 2.368.389 1.253-.728 2.561-2.964 5.176l-.579.676c-.635.743-.953 1.115-1.096 1.573-.143.46-.095.956.001 1.947l.088.903c.337 3.489.507 5.233-.515 6.008s-2.557.068-5.627-1.345l-.796-.365c-.872-.403-1.308-.603-1.771-.603s-.899.2-1.771.603l-.795.365c-3.071 1.413-4.607 2.12-5.627 1.347-1.023-.776-.853-2.52-.516-6.009l.088-.901c.096-.992.144-1.488 0-1.947-.141-.46-.46-.832-1.095-1.573l-.579-.677c-2.236-2.613-3.353-3.921-2.964-5.176s2.031-1.627 5.311-2.368l.848-.192c.932-.211 1.397-.316 1.772-.6s.613-.715 1.093-1.576l.437-.784z" style="fill:var(--color1, #fff)"/></symbol></defs></svg>