<svg xmlns="http://www.w3.org/2000/svg" aria-hidden="true" style="position:absolute;width:0;height:0;overflow:hidden"><defs><symbol id="icon-arrow" viewBox="0 0 32 32"><path fill="#fff" d="m17.333 21.567 6.533-6.533q.4-.4.933-.384c.533.016.667.15.933.417q.366.4.384.933c.018.533-.116.667-.384.933l-8.8 8.8q-.2.2-.433.284a1.1 1.1 0 0 1-.5.081q-.267-.003-.5-.084c-.233-.081-.3-.149-.433-.283l-8.8-8.8q-.366-.367-.367-.917c-.001-.55.122-.684.367-.949q.4-.4.951-.4c.551 0 .684.133.949.4l6.5 6.501v-14.9q0-.567.384-.951c.384-.384.572-.384.949-.383q.565.002.951.384c.386.382.384.572.383.949v14.9z" style="fill:var(--color1, #fff)"/></symbol><symbol id="icon-close" viewBox="0 0 32 32"><path fill="#fff" d="m16 18.829 7.071 7.071a2.001 2.001 0 0 0 2.83-2.83l-7.073-7.071L25.9 8.928a2 2 0 0 0 .585-1.414 2 2 0 0 0-.586-1.414 2 2 0 0 0-1.414-.585 2 2 0 0 0-1.414.586l-7.069 7.071-7.071-7.071a2 2 0 1 0-2.829 2.827L13.175 16l-7.072 7.072a2 2 0 0 0-.61 1.421 2.02 2.02 0 0 0 .586 1.432 2 2 0 0 0 2.204.423c.244-.105.465-.257.649-.449z" style="fill:var(--color1, #fff)"/></symbol><symbol id="icon-menu" viewBox="0 0 32 32"><path d="M26.667 23.333a1.996 1.996 0 0 1 1.996 1.904 1.997 1.997 0 0 1-1.805 2.086l-.192.009H5.333a2.001 2.001 0 0 1-1.512-3.308 2 2 0 0 1 1.32-.682l.192-.009zm0-9.333a2 2 0 0 1 0 4H5.334a2 2 0 0 1 0-4zm0-9.333a2 2 0 0 1 0 4H5.334a2 2 0 0 1 0-4z"/></symbol><symbol id="icon-quote" viewBox="0 0 32 32"><path d="M8 8.5h4a2.17 2.17 0 0 1 2.167 2.167v6.667A6.167 6.167 0 0 1 8 23.5H6.667a.833.833 0 0 1 0-1.666H8a4.5 4.5 0 0 0 4.5-4.5v-.5H8a2.17 2.17 0 0 1-2.167-2.167v-4A2.17 2.17 0 0 1 8 8.5m12 0h4a2.17 2.17 0 0 1 2.167 2.167v6.667A6.167 6.167 0 0 1 20 23.5h-1.333a.833.833 0 0 1 0-1.666H20a4.5 4.5 0 0 0 4.5-4.5v-.5H20a2.17 2.17 0 0 1-2.167-2.167v-4A2.17 2.17 0 0 1 20 8.5"/></symbol><symbol id="icon-star-black" viewBox="0 0 32 32"><path d="M12.204 7.211C13.893 4.182 14.737 2.667 16 2.667s2.107 1.515 3.796 4.544l.437.784c.48.861.72 1.292 1.093 1.576s.84.389 1.773.6l.848.192c3.28.743 4.919 1.113 5.309 2.368.389 1.253-.728 2.561-2.964 5.176l-.579.676c-.635.743-.953 1.115-1.096 1.573-.143.46-.095.956.001 1.947l.088.903c.337 3.489.507 5.233-.515 6.008s-2.557.068-5.627-1.345l-.796-.365c-.872-.403-1.308-.603-1.771-.603s-.899.2-1.771.603l-.795.365c-3.071 1.413-4.607 2.12-5.627 1.347-1.023-.776-.853-2.52-.516-6.009l.088-.901c.096-.992.144-1.488 0-1.947-.141-.46-.46-.832-1.095-1.573l-.579-.677c-2.236-2.613-3.353-3.921-2.964-5.176s2.031-1.627 5.311-2.368l.848-.192c.932-.211 1.397-.316 1.772-.6s.613-.715 1.093-1.576l.437-.784z"/></symbol><symbol id="icon-star-empty" viewBox="0 0 32 32"><path stroke-width="2.667" d="M16 4c.022 0 .058-.001.147.059.113.076.287.234.533.555.507.662 1.085 1.694 1.952 3.247l.438.783c.422.757.803 1.496 1.45 1.988.657.5 1.469.654 2.287.839v.001l.848.191c1.685.382 2.794.637 3.544.932.544.214.705.376.759.466l.027.066c.021.069.081.281-.353.97-.445.708-1.204 1.601-2.35 2.941l-.579.677c-.562.657-1.113 1.263-1.355 2.044h-.001c-.181.582-.167 1.186-.113 1.823l.061.648.089.902c.173 1.787.285 2.982.247 3.833-.038.846-.214.963-.241.983-.005.004-.116.145-.872-.072-.773-.222-1.814-.696-3.391-1.422l-.001-.001-.797-.365c-.762-.352-1.504-.724-2.327-.724s-1.565.372-2.327.724l-.796.366c-1.578.726-2.618 1.201-3.392 1.423-.757.217-.869.074-.872.072-.03-.023-.203-.145-.241-.984-.038-.852.075-2.046.247-3.832l.087-.902c.085-.88.189-1.698-.055-2.475-.243-.782-.795-1.387-1.354-2.04H7.3l-.578-.677h-.001c-1.146-1.34-1.906-2.234-2.352-2.941-.436-.692-.373-.904-.352-.973.016-.053.061-.245.786-.531.563-.222 1.327-.42 2.385-.667l2.006-.458c.818-.185 1.626-.339 2.284-.837.651-.493 1.033-1.235 1.453-1.99l-.001-.001.438-.781c.866-1.554 1.445-2.586 1.952-3.247.245-.32.419-.479.533-.555.089-.06.125-.059.147-.059z"/></symbol><symbol id="icon-star-white" viewBox="0 0 32 32"><path fill="#fff" d="M12.204 7.211C13.893 4.182 14.737 2.667 16 2.667s2.107 1.515 3.796 4.544l.437.784c.48.861.72 1.292 1.093 1.576s.84.389 1.773.6l.848.192c3.28.743 4.919 1.113 5.309 2.368.389 1.253-.728 2.561-2.964 5.176l-.579.676c-.635.743-.953 1.115-1.096 1.573-.143.46-.095.956.001 1.947l.088.903c.337 3.489.507 5.233-.515 6.008s-2.557.068-5.627-1.345l-.796-.365c-.872-.403-1.308-.603-1.771-.603s-.899.2-1.771.603l-.795.365c-3.071 1.413-4.607 2.12-5.627 1.347-1.023-.776-.853-2.52-.516-6.009l.088-.901c.096-.992.144-1.488 0-1.947-.141-.46-.46-.832-1.095-1.573l-.579-.677c-2.236-2.613-3.353-3.921-2.964-5.176s2.031-1.627 5.311-2.368l.848-.192c.932-.211 1.397-.316 1.772-.6s.613-.715 1.093-1.576l.437-.784z" style="fill:var(--color1, #fff)"/></symbol></defs></svg>